Coordinates
version=1
nRows=15
nColumns=46
inDegrees=yes

Units are S.I. units (second, meters, Newtons, ...)
Angles are in degrees.

endheader
time	pelvis_tilt	pelvis_list	pelvis_rotation	pelvis_tx	pelvis_ty	pelvis_tz	bb_angle	bb_tx	bb_ty	bb_tz	hip_flexion_r	hip_adduction_r	hip_rotation_r	knee_angle_r	knee_angle_r_beta	ankle_angle_r	subtalar_angle_r	mtp_angle_r	crank_angle_r	hip_flexion_l	hip_adduction_l	hip_rotation_l	knee_angle_l	knee_angle_l_beta	ankle_angle_l	subtalar_angle_l	mtp_angle_l	crank_angle_l	lumbar_extension	lumbar_bending	lumbar_rotation	arm_flex_r	arm_add_r	arm_rot_r	elbow_flex_r	pro_sup_r	wrist_flex_r	wrist_dev_r	arm_flex_l	arm_add_l	arm_rot_l	elbow_flex_l	pro_sup_l	wrist_flex_l	wrist_dev_l
      0.00000000	    -19.76218215	     -2.41285377	     -5.08117690	      0.16429054	      1.02931283	     -0.31700291	      0.00000000	      0.50000000	      0.00000000	      0.25000000	     92.26602816	      0.63633348	      2.22356836	     87.93430810	      1.53474320	      6.60352485	     -6.52156184	      0.00000000	      0.00000000	     61.58648952	    -11.97347949	      0.05370842	     77.75359962	      1.35705632	    -14.37817018	    -11.66130652	      0.00000000	      0.00000000	    -89.85118237	     14.92266539	     -8.04693749	     79.38912496	     89.76087731	      5.02378375	     89.97328884	     18.66524746	      0.00000000	      0.00000000	     75.08590289	   -117.60051817	      7.92068697	    105.50389020	     44.83294052	      0.00000000	      0.00000000
      0.00500000	    -19.78644888	     -2.42292686	     -5.00392005	      0.16420248	      1.02932568	     -0.31712681	      0.00000000	      0.50000000	      0.00000000	      0.25000000	     92.29371491	      0.55889204	      2.23047124	     87.96056704	      1.53520151	      6.66996386	     -6.47683101	      0.00000000	      0.00000000	     61.70795459	    -11.89410852	      0.12610064	     77.75304923	      1.35704671	    -14.70004100	    -11.74543114	      0.00000000	      0.00000000	    -89.85034615	     14.95595838	     -7.95818277	     79.09817637	     89.76503349	      5.29762010	     89.98074753	     19.12039592	      0.00000000	      0.00000000	     74.55771612	   -117.56939082	      7.36148912	    105.33087867	     44.91802307	      0.00000000	      0.00000000
      0.01000000	    -19.79828270	     -2.46929831	     -4.96467626	      0.16408789	      1.02943947	     -0.31709341	      0.00000000	      0.50000000	      0.00000000	      0.25000000	     92.29106787	      0.54912929	      2.19886690	     87.95566007	      1.53511586	      6.69162838	     -6.48474979	      0.00000000	      0.00000000	     61.75602489	    -11.90031357	      0.21711274	     77.70425542	      1.35619510	    -14.84808267	    -11.60912504	      0.00000000	      0.00000000	    -89.84957511	     14.99519156	     -7.83372087	     79.22514546	     89.76689699	      5.05465165	     89.87648640	     19.33987523	      0.00000000	      0.00000000	     74.37945253	   -117.34329432	      7.11074060	    105.23315067	     44.93538498	      0.00000000	      0.00000000
      0.01500000	    -19.76175437	     -2.60458639	     -5.07817462	      0.16405733	      1.02919158	     -0.31714159	      0.00000000	      0.50000000	      0.00000000	      0.25000000	     92.27938644	      0.72049688	      2.11674892	     88.01475135	      1.53614720	      6.71908415	     -6.52533223	      0.00000000	      0.00000000	     61.82154424	    -12.09857825	      0.27879855	     77.85519420	      1.35882948	    -14.93464838	    -11.63561338	      0.00000000	      0.00000000	    -89.85029136	     14.92066348	     -7.71182650	     78.93168552	     89.77026979	      5.11742053	     89.75252361	     19.87350534	      0.00000000	      0.00000000	     74.04511148	   -117.21000646	      6.56040030	    105.04739423	     44.96085124	      0.00000000	      0.00000000
      0.02000000	    -19.79978148	     -2.59482353	     -5.13941781	      0.16387652	      1.02933248	     -0.31683554	      0.00000000	      0.50000000	      0.00000000	      0.25000000	     92.35332026	      0.76445294	      2.08078122	     88.02277117	      1.53628717	      6.64239822	     -6.67610102	      0.00000000	      0.00000000	     61.88577330	    -12.14879764	      0.27666480	     77.85385396	      1.35880609	    -15.09715480	    -11.62786542	      0.00000000	      0.00000000	    -89.85154410	     14.81892424	     -7.70752737	     78.72249832	     89.76980863	      5.50180678	     89.77056514	     20.29127582	      0.00000000	      0.00000000	     73.75925409	   -117.33347264	      6.36325656	    104.98888294	     45.05073541	      0.00000000	      0.00000000
      0.02500000	    -19.77664608	     -2.48788684	     -5.14596444	      0.16385621	      1.02947066	     -0.31678005	      0.00000000	      0.50000000	      0.00000000	      0.25000000	     92.36560282	      0.76304089	      2.18849943	     88.02600206	      1.53634356	      6.47235359	     -6.75793170	      0.00000000	      0.00000000	     61.83388042	    -12.08619016	      0.17174316	     77.81068475	      1.35805264	    -15.14214299	    -11.66674374	      0.00000000	      0.00000000	    -89.85063190	     14.79405451	     -7.87971965	     78.59138944	     89.77058097	      5.68818560	     89.91610003	     20.19631607	      0.00000000	      0.00000000	     73.88317120	   -117.56341485	      6.64985443	    105.08476842	     45.23661852	      0.00000000	      0.00000000
      0.03000000	    -19.72006946	     -2.52640362	     -5.07584910	      0.16370920	      1.02946437	     -0.31656817	      0.00000000	      0.50000000	      0.00000000	      0.25000000	     92.33806699	      0.74524006	      2.17885720	     88.05534885	      1.53685576	      6.47554802	     -6.74350761	      0.00000000	      0.00000000	     61.82279204	    -12.08054273	      0.28721455	     77.84212611	      1.35860140	    -15.04607865	    -11.46573173	      0.00000000	      0.00000000	    -89.85257726	     14.86974585	     -7.56042212	     78.62411130	     89.77183527	      5.41056680	     89.62881622	     20.86060659	      0.00000000	      0.00000000	     73.29237495	   -116.94491698	      6.20062671	    104.74043508	     45.24493498	      0.00000000	      0.00000000
      0.03500000	    -19.73271503	     -2.49527814	     -5.10283711	      0.16373343	      1.02942892	     -0.31654707	      0.00000000	      0.50000000	      0.00000000	      0.25000000	     92.38413065	      0.77016815	      2.21096494	     88.05841375	      1.53690925	      6.31340634	     -6.78614492	      0.00000000	      0.00000000	     61.83680500	    -12.08018559	      0.24994751	     77.87155788	      1.35911508	    -15.08479685	    -11.53597345	      0.00000000	      0.00000000	    -89.85079469	     14.85751838	     -7.89371911	     77.44412460	     89.78062472	      6.94860176	     91.03277163	     14.22247270	      0.00000000	      0.00000000	     74.27613815	   -117.56836666	      7.13755128	    104.76286702	     47.21483486	      0.00000000	      0.00000000
      0.04000000	    -17.15654241	     -3.65987713	     -5.75123719	      0.17016027	      1.03969176	     -0.31739892	      0.00000000	      0.50000000	      0.00000000	      0.25000000	     88.24189397	      1.15103189	      0.74503056	     87.38907307	      1.52522706	      7.15649215	     -6.44686390	      0.00000000	      0.00000000	     57.62027762	    -13.53317670	     -0.23885915	     76.59734827	      1.33687593	    -14.65250910	    -11.58710924	      0.00000000	      0.00000000	    -55.07710827	     -1.76492015	      6.41307396	     89.78230800	     -1.18732892	     27.48483066	     32.34256321	     16.06066015	      0.00000000	      0.00000000	     89.57194216	     -0.89702784	     29.34414419	     29.89758347	     31.90221046	      0.00000000	      0.00000000
      0.04500000	    -17.16461852	     -3.64743632	     -5.74835166	      0.17018713	      1.03962695	     -0.31741622	      0.00000000	      0.50000000	      0.00000000	      0.25000000	     88.27953285	      1.14179309	      0.76470800	     87.40474489	      1.52550058	      7.08884852	     -6.41018280	      0.00000000	      0.00000000	     57.62505053	    -13.51354550	     -0.22193110	     76.63110812	      1.33746515	    -14.53012392	    -11.51001146	      0.00000000	      0.00000000	    -55.04710390	     -1.76442063	      6.36836991	     89.78211369	     -1.08228205	     27.31604845	     31.28453941	     21.00217288	      0.00000000	      0.00000000	     89.57627342	     -1.00728163	     29.96460849	     29.96796903	     30.95202631	      0.00000000	      0.00000000
      0.05000000	    -17.11463597	     -3.68007571	     -5.80461249	      0.17023726	      1.03968347	     -0.31736916	      0.00000000	      0.50000000	      0.00000000	      0.25000000	     88.24070154	      1.20336701	      0.73712561	     87.39815638	      1.52538559	      6.95474943	     -6.48029557	      0.00000000	      0.00000000	     57.54617246	    -13.58943750	     -0.23383057	     76.66735637	      1.33809780	    -14.36893579	    -11.45880198	      0.00000000	      0.00000000	    -55.11703243	     -1.79228656	      6.44675639	     89.78200254	     -1.06921687	     26.93398256	     31.82897806	     18.77126650	      0.00000000	      0.00000000	     89.56906665	     -0.99601345	     30.26969157	     30.81041639	     26.11535234	      0.00000000	      0.00000000
      0.05500000	    -17.09772323	     -3.66887224	     -5.87314805	      0.17033407	      1.03970202	     -0.31738366	      0.00000000	      0.50000000	      0.00000000	      0.25000000	     88.23593126	      1.25984954	      0.75255949	     87.39438177	      1.52531971	      6.88788433	     -6.47078888	      0.00000000	      0.00000000	     57.47266037	    -13.63634264	     -0.29801561	     76.68536713	      1.33841214	    -14.18648631	    -11.44725341	      0.00000000	      0.00000000	    -55.12880224	     -1.84039515	      6.49407018	     89.78156051	     -0.93523081	     26.22265188	     31.49939257	     20.33537530	      0.00000000	      0.00000000	     89.56390493	     -0.87116024	     29.72020950	     30.68187485	     26.80834125	      0.00000000	      0.00000000
      0.06000000	    -17.09482698	     -3.68424664	     -5.94425270	      0.17042043	      1.03967026	     -0.31736530	      0.00000000	      0.50000000	      0.00000000	      0.25000000	     88.24510924	      1.32305731	      0.73802188	     87.38661563	      1.52518416	      6.77769713	     -6.47215633	      0.00000000	      0.00000000	     57.42136596	    -13.70353628	     -0.33307036	     76.72322703	      1.33907292	    -13.98473489	    -11.44790237	      0.00000000	      0.00000000	    -55.13372618	     -1.88595860	      6.56944152	     89.77998676	     -0.96655593	     26.09669011	     31.47296726	     20.58855701	      0.00000000	      0.00000000	     89.56448680	     -0.82074648	     29.66154145	     30.64071061	     26.69368288	      0.00000000	      0.00000000
      0.06500000	    -17.16508794	     -3.73392702	     -5.99267002	      0.17060975	      1.03947092	     -0.31737258	      0.00000000	      0.50000000	      0.00000000	      0.25000000	     88.31576728	      1.36692395	      0.69053804	     87.38961769	      1.52523656	      6.75930058	     -6.42962482	      0.00000000	      0.00000000	     57.45357929	    -13.78343013	     -0.31161670	     76.78893248	      1.34021970	    -13.62243232	    -11.27640988	      0.00000000	      0.00000000	    -55.05896813	     -1.86587441	      6.63811641	     89.77972085	     -0.92037911	     26.06348705	     31.33906730	     21.14943950	      0.00000000	      0.00000000	     89.55953426	     -0.77177557	     29.63804306	     30.51754471	     26.84980127	      0.00000000	      0.00000000
      0.07000000	    -17.13886654	     -3.72664784	     -6.02063799	      0.17067415	      1.03945492	     -0.31739746	      0.00000000	      0.50000000	      0.00000000	      0.25000000	     88.30354886	      1.37833587	      0.68998389	     87.38348010	      1.52512944	      6.68657040	     -6.42008450	      0.00000000	      0.00000000	     57.36305732	    -13.79126607	     -0.34828094	     76.81899009	      1.34074431	    -13.32937562	    -11.27527646	      0.00000000	      0.00000000	    -55.05831266	     -1.88644193	      6.63583171	     89.78089698	     -1.16505739	     27.23157050	     31.03142016	     21.93855890	      0.00000000	      0.00000000	     89.55792609	     -1.00724288	     30.46377611	     30.44960299	     27.57767493	      0.00000000	      0.00000000
